<?xml version="1.0" encoding="utf-8"?>
<!-- Generator: Adobe Illustrator 26.1.0, SVG Export Plug-In . SVG Version: 6.00 Build 0)  -->
<svg version="1.1" id="圖層_1" xmlns="http://www.w3.org/2000/svg" xmlns:xlink="http://www.w3.org/1999/xlink" x="0px" y="0px"
	 viewBox="0 0 256 256" style="enable-background:new 0 0 256 256;" xml:space="preserve">
<style type="text/css">
	.st0{clip-path:url(#SVGID_00000001640698283275824930000014266358913659598738_);}
	.st1{fill:#FFFFFF;}
	.st2{fill:#FFFFFF;stroke:#2D2D2D;stroke-width:2.2677;stroke-miterlimit:10;}
	.st3{fill:none;stroke:#2FDBF2;stroke-width:8.5039;stroke-linecap:round;stroke-linejoin:round;stroke-miterlimit:10;}
	.st4{fill:#2FDBF2;}
	.st5{fill:none;stroke:#2FDBF2;stroke-width:2.1343;stroke-miterlimit:10;}
	.st6{fill:none;stroke:#FFFFFF;stroke-width:2;stroke-linecap:round;stroke-linejoin:round;stroke-miterlimit:10;}
	.st7{fill:none;stroke:#F71A0F;stroke-miterlimit:10;}
	.st8{clip-path:url(#SVGID_00000174603569848640215240000007802489405882895266_);}
	.st9{opacity:0.9;}
	.st10{fill:url(#SVGID_00000060732795735982747290000015678693177294029197_);}
	.st11{fill:url(#SVGID_00000060008318014500448570000001460667517651584646_);}
	.st12{fill:url(#SVGID_00000147178969713176966540000010310202853984609681_);}
	.st13{fill:url(#SVGID_00000119816058151715939050000006653638411862448303_);}
	.st14{fill:url(#SVGID_00000061432917393778824100000009410940085593933246_);}
	.st15{fill:url(#SVGID_00000030487244345512769300000015646249478055044528_);}
	.st16{fill:url(#SVGID_00000080918063261646686380000007890839566202747271_);}
	.st17{fill:url(#SVGID_00000147195124204290515700000012176302687145533106_);}
	.st18{fill:url(#SVGID_00000009560627444535247020000016519480275274967938_);}
	.st19{fill:url(#SVGID_00000168089570207759063220000004375939568069986970_);}
	.st20{fill:url(#SVGID_00000135684555698479682450000006062861073766517389_);}
	
		.st21{clip-path:url(#SVGID_00000011005279442697671580000013423769732205543576_);fill:#FFFFFF;stroke:#595757;stroke-width:3.4072;stroke-miterlimit:10;}
	.st22{fill:#595757;}
	.st23{fill:#D64A2A;}
	.st24{fill:#FFFFFF;stroke:#2D2D2D;stroke-width:2.8346;stroke-miterlimit:10;}
	.st25{fill:#FFFFFF;stroke:#595757;stroke-width:5.6787;stroke-miterlimit:10;}
	.st26{opacity:0.6;fill:#717071;}
	.st27{fill:none;stroke:#2FDBF2;stroke-width:6;stroke-linecap:round;stroke-linejoin:round;stroke-miterlimit:10;}
	.st28{fill:#717071;}
	.st29{fill:#910782;}
	.st30{fill:#E50012;}
	.st31{fill:#231815;}
	.st32{fill:none;stroke:#2FDBF2;stroke-width:5.3664;stroke-miterlimit:10;}
	.st33{fill:#333333;}
	.st34{clip-path:url(#SVGID_00000150095138001251289040000012843768985667749297_);}
	.st35{clip-path:url(#SVGID_00000145751634814728114360000002344639075924770746_);}
	.st36{clip-path:url(#SVGID_00000067921273024156620160000004758151004947480225_);}
	.st37{clip-path:url(#SVGID_00000038379031899536282980000011834760370522953149_);}
	.st38{clip-path:url(#SVGID_00000021096309438370336890000016907931893778132107_);}
	.st39{clip-path:url(#SVGID_00000082325863696788875860000011855179437731321228_);}
	.st40{fill:none;stroke:#F71A0F;stroke-width:0.883;stroke-miterlimit:10;}
	.st41{fill:none;stroke:#FF0000;stroke-miterlimit:10;}
	.st42{fill:#FF0000;}
	.st43{fill:none;stroke:#FFFFFF;stroke-width:17.495;stroke-linecap:round;stroke-linejoin:round;stroke-miterlimit:10;}
</style>
<path class="st1" d="M202.41,46.25h-10.73l-21.46-19.76c-3.24-2.98-7.48-4.64-11.88-4.64h-29.75H98.84c-4.4,0-8.64,1.65-11.88,4.64
	L65.5,46.25H54.77c-23.58,0-42.69,19.12-42.69,42.69v102.21c0,23.58,19.11,42.69,42.69,42.69h147.64
	c23.58,0,42.69-19.11,42.69-42.69V88.95C245.11,65.37,225.99,46.25,202.41,46.25z M128.59,198.94c-32.7,0-59.31-26.61-59.31-59.31
	c0-32.7,26.61-59.31,59.31-59.31c32.7,0,59.31,26.61,59.31,59.31C187.9,172.34,161.3,198.94,128.59,198.94z M204.09,98.83
	c-6.74,0-12.2-5.46-12.2-12.2c0-6.74,5.46-12.2,12.2-12.2c6.74,0,12.2,5.46,12.2,12.2C216.29,93.37,210.83,98.83,204.09,98.83z"/>
</svg>
