<?xml version="1.0" encoding="utf-8"?>
<!-- Generator: Adobe Illustrator 26.1.0, SVG Export Plug-In . SVG Version: 6.00 Build 0)  -->
<svg version="1.1" id="圖層_1" xmlns="http://www.w3.org/2000/svg" xmlns:xlink="http://www.w3.org/1999/xlink" x="0px" y="0px"
	 viewBox="0 0 256 256" style="enable-background:new 0 0 256 256;" xml:space="preserve">
<style type="text/css">
	.st0{clip-path:url(#SVGID_00000048476202188316075310000011282354707619585717_);}
	.st1{fill:#FFFFFF;}
	.st2{fill:#FFFFFF;stroke:#2D2D2D;stroke-width:2.2677;stroke-miterlimit:10;}
	.st3{fill:none;stroke:#2FDBF2;stroke-width:8.5039;stroke-linecap:round;stroke-linejoin:round;stroke-miterlimit:10;}
	.st4{fill:#2FDBF2;}
	.st5{fill:none;stroke:#2FDBF2;stroke-width:2.1343;stroke-miterlimit:10;}
	.st6{fill:none;stroke:#FFFFFF;stroke-width:2;stroke-linecap:round;stroke-linejoin:round;stroke-miterlimit:10;}
	.st7{fill:none;stroke:#F71A0F;stroke-miterlimit:10;}
	.st8{clip-path:url(#SVGID_00000121276086029808920580000003694658017066555056_);}
	.st9{opacity:0.9;}
	.st10{fill:url(#SVGID_00000105389891737049196180000012235764532637078944_);}
	.st11{fill:url(#SVGID_00000167397898005711279420000014797606677117267899_);}
	.st12{fill:url(#SVGID_00000177479380179729875480000006797562126704733351_);}
	.st13{fill:url(#SVGID_00000160893951184388843960000003476441127747900296_);}
	.st14{fill:url(#SVGID_00000124875999054759156820000011402264575269404562_);}
	.st15{fill:url(#SVGID_00000124152111756290735130000005905662223328786078_);}
	.st16{fill:url(#SVGID_00000137840008422889875240000017140255486100239278_);}
	.st17{fill:url(#SVGID_00000145752771101785367160000012408171772932093364_);}
	.st18{fill:url(#SVGID_00000044176569689178464140000000207230874735428024_);}
	.st19{fill:url(#SVGID_00000132077544470243591480000003648274927612581516_);}
	.st20{fill:url(#SVGID_00000152246503104343410400000005487166146744568201_);}
	
		.st21{clip-path:url(#SVGID_00000044878730344770100530000013661977191934823587_);fill:#FFFFFF;stroke:#595757;stroke-width:3.4072;stroke-miterlimit:10;}
	.st22{fill:#595757;}
	.st23{fill:#D64A2A;}
	.st24{fill:#FFFFFF;stroke:#2D2D2D;stroke-width:2.8346;stroke-miterlimit:10;}
	.st25{fill:#FFFFFF;stroke:#595757;stroke-width:5.6787;stroke-miterlimit:10;}
	.st26{opacity:0.6;fill:#717071;}
	.st27{fill:none;stroke:#2FDBF2;stroke-width:6;stroke-linecap:round;stroke-linejoin:round;stroke-miterlimit:10;}
	.st28{fill:#717071;}
	.st29{fill:#910782;}
	.st30{fill:#E50012;}
	.st31{fill:#231815;}
	.st32{fill:none;stroke:#2FDBF2;stroke-width:5.3664;stroke-miterlimit:10;}
	.st33{fill:#333333;}
	.st34{clip-path:url(#SVGID_00000121239653407176933190000009881175436371862424_);}
	.st35{clip-path:url(#SVGID_00000047025390058329825070000006485818517503871676_);}
	.st36{clip-path:url(#SVGID_00000150065981602620016150000016047857212956510096_);}
	.st37{clip-path:url(#SVGID_00000050626982861857906790000008069211178346039734_);}
	.st38{clip-path:url(#SVGID_00000064337960414998433530000002589611077289818511_);}
	.st39{clip-path:url(#SVGID_00000055692828251056047670000014155503895707284879_);}
	.st40{fill:none;stroke:#F71A0F;stroke-width:0.883;stroke-miterlimit:10;}
	.st41{fill:none;stroke:#FF0000;stroke-miterlimit:10;}
	.st42{fill:#FF0000;}
	.st43{fill:none;stroke:#FFFFFF;stroke-width:17.495;stroke-linecap:round;stroke-linejoin:round;stroke-miterlimit:10;}
</style>
<g>
	<g>
		<g>
			<path class="st4" d="M71.72,76.06H32.35V36.69h39.37V76.06z M42.19,66.21h19.68V46.53H42.19V66.21z"/>
		</g>
		<g>
			<polygon class="st4" points="93.05,97.38 32.35,97.38 32.35,87.54 83.2,87.54 83.2,36.69 112.73,36.69 112.73,46.53 93.05,46.53 
							"/>
		</g>
		<g>
			<polygon class="st4" points="117.24,225.33 86.07,225.33 86.07,158.08 95.92,158.08 95.92,215.49 117.24,215.49 			"/>
		</g>
		<g>
			<path class="st4" d="M224.28,85.08H168.5V36.69h55.77V85.08z M178.35,75.24h36.09V46.53h-36.09V75.24z"/>
		</g>
		<g>
			<polygon class="st4" points="168.09,145.77 132,145.77 132,117.89 141.85,117.89 141.85,135.93 158.25,135.93 158.25,117.99 
				168.09,117.99 			"/>
		</g>
		<g>
			<polygon class="st4" points="66.8,169.01 32.35,169.01 32.35,111.32 97.97,111.32 97.97,121.17 42.19,121.17 42.19,159.17 
				66.8,159.17 			"/>
		</g>
		<g>
			<polygon class="st4" points="224.28,172.29 184.91,172.29 184.91,117.89 194.75,117.89 194.75,162.45 214.43,162.45 
				214.43,108.04 204.59,108.04 204.59,98.2 224.28,98.2 			"/>
		</g>
		<g>
			<path class="st4" d="M71.72,225.33H32.35v-44.29h39.37V225.33z M42.19,215.49h19.68v-24.61H42.19V215.49z"/>
		</g>
		<g>
			<path class="st4" d="M224.28,225.33h-39.37v-39.37h39.37V225.33z M194.75,215.49h19.68V195.8h-19.68V215.49z"/>
		</g>
		<g>
			<polygon class="st4" points="120.52,144.95 54.91,144.95 54.91,135.11 110.68,135.11 110.68,92.46 146.77,92.46 146.77,36.69 
				156.61,36.69 156.61,102.3 120.52,102.3 			"/>
		</g>
		<g>
			<polygon class="st4" points="169.73,202.37 109.04,202.37 109.04,184.32 118.88,184.32 118.88,192.52 159.89,192.52 
				159.89,167.92 109.04,167.92 109.04,158.08 169.73,158.08 			"/>
		</g>
		<g>
			<rect x="132" y="215.49" class="st4" width="39.37" height="9.84"/>
		</g>
		<g>
			<polygon class="st4" points="135.29,79.34 104.12,79.34 104.12,58.01 113.96,58.01 113.96,69.49 125.44,69.49 125.44,36.69 
				135.29,36.69 			"/>
		</g>
		<g>
			<rect x="169.73" y="98.2" class="st4" width="24.61" height="9.84"/>
		</g>
	</g>
	<g>
		<g>
			<polyline class="st32" points="11.85,44.18 11.85,15.6 40.62,15.6 			"/>
		</g>
		<g>
			<polyline class="st32" points="244.78,44.18 244.78,15.6 216.01,15.6 			"/>
		</g>
		<g>
			<polyline class="st32" points="11.85,217.84 11.85,246.42 40.62,246.42 			"/>
		</g>
		<g>
			<polyline class="st32" points="244.78,217.84 244.78,246.42 216.01,246.42 			"/>
		</g>
	</g>
</g>
</svg>
